<svg width="1280" height="760" viewBox="0 0 1280 760" fill="none" xmlns="http://www.w3.org/2000/svg">
<rect width="1280" height="760" fill="#E5F7F7"/>
<rect x="361" y="494" width="75" height="75" rx="7" stroke="black" stroke-width="2"/>
<rect x="455" y="494" width="75" height="75" rx="7" stroke="black" stroke-width="2"/>
<rect x="549" y="494" width="75" height="75" rx="7" stroke="black" stroke-width="2"/>
<rect x="362" y="263" width="264" height="105" rx="8" stroke="black" stroke-width="2"/>
<rect x="377" y="279" width="92" height="75" rx="16" stroke="black" stroke-width="2" stroke-dasharray="8.02 8.02"/>
<rect x="733" y="420" width="216" height="176" rx="16" stroke="black" stroke-width="2" stroke-dasharray="8.02 8.02"/>
<rect x="362" y="399" width="77" height="77" rx="8" stroke="black" stroke-width="2"/>
<rect x="456" y="399" width="77" height="77" rx="8" stroke="black" stroke-width="2"/>
<rect x="550" y="399" width="77" height="77" rx="8" stroke="black" stroke-width="2"/>
<path d="M335 236H976V604C976 615.046 967.046 624 956 624H355C343.954 624 335 615.046 335 604V236Z" stroke="black" stroke-width="2"/>
<path d="M335 214C335 202.954 343.954 194 355 194H956C967.046 194 976 202.954 976 214V236H335V214Z" fill="white" stroke="black" stroke-width="2"/>
<circle cx="363" cy="215" r="6" fill="black"/>
<circle cx="383.016" cy="215" r="6" fill="black"/>
<circle cx="403.033" cy="215" r="6" fill="black"/>
<line x1="318.293" y1="407.293" x2="347.284" y2="378.302" stroke="#00CFBE" stroke-width="2"/>
<circle cx="374.5" cy="357.5" r="34.5" fill="#E5F7F7"/>
<mask id="mask0_2381_2029" style="mask-type:alpha" maskUnits="userSpaceOnUse" x="340" y="323" width="69" height="69">
<circle cx="374.5" cy="357.5" r="34.5" fill="#E5F7F7"/>
</mask>
<g mask="url(#mask0_2381_2029)">
<rect x="350" y="253" width="318" height="127" rx="8" stroke="black" stroke-width="2"/>
<rect x="369" y="271" width="110" height="90" rx="16" stroke="black" stroke-width="2" stroke-dasharray="7.27 7.27"/>
</g>
<path d="M388.653 647.066L388.654 647.068C388.793 647.449 388.855 647.854 388.838 648.259C388.82 648.665 388.723 649.063 388.552 649.43C388.38 649.798 388.138 650.128 387.839 650.403C387.542 650.675 387.195 650.886 386.817 651.025C386.472 651.147 386.109 651.21 385.744 651.213C385.112 651.212 384.496 651.017 383.978 650.655C383.459 650.292 383.064 649.778 382.847 649.182L357.675 579.97L357.172 578.588H355.701H280.924H279.453L278.95 579.97L253.778 649.182C253.561 649.778 253.166 650.292 252.647 650.655C252.129 651.018 251.512 651.212 250.879 651.213C250.515 651.211 250.154 651.148 249.81 651.026C249.431 650.887 249.083 650.675 248.786 650.403L247.367 651.951L248.786 650.403C248.487 650.128 248.245 649.798 248.073 649.43C247.902 649.063 247.805 648.665 247.787 648.259C247.77 647.854 247.833 647.449 247.972 647.068L247.972 647.066L260.539 612.531L261.564 609.713H258.566H186.602H185.131L184.628 611.095L170.778 649.182C170.778 649.183 170.778 649.183 170.778 649.183C170.561 649.778 170.166 650.292 169.647 650.655C169.133 651.015 168.521 651.209 167.894 651.212C167.546 651.204 167.202 651.141 166.874 651.025C166.495 650.886 166.148 650.675 165.851 650.403L164.433 651.949L165.851 650.403C165.552 650.128 165.31 649.798 165.138 649.43C164.967 649.063 164.87 648.665 164.852 648.259C164.835 647.854 164.897 647.449 165.036 647.068L165.037 647.065L245.444 425.78L246.467 422.963H243.47H230.125C229.306 422.963 228.521 422.637 227.942 422.058C227.363 421.479 227.038 420.694 227.038 419.875C227.038 419.056 227.363 418.271 227.942 417.692C228.521 417.113 229.306 416.787 230.125 416.787H354.625C355.444 416.787 356.229 417.113 356.808 417.692C357.387 418.271 357.713 419.056 357.713 419.875C357.713 420.694 357.387 421.479 356.808 422.058C356.229 422.637 355.444 422.963 354.625 422.963H337.506H336.035L335.533 424.345L321.864 461.955L321.603 462.672L321.864 463.39L388.653 647.066ZM284.97 541.288H286.441L286.944 539.905L305.8 488.03L306.824 485.213H303.826H231.876H230.405L229.902 486.595L211.033 538.47L210.008 541.288H213.006H284.97ZM328.443 425.78L329.468 422.963H326.47H254.506H253.035L252.533 424.345L233.676 476.22L232.652 479.038H235.65H307.6H309.071L309.574 477.655L328.443 425.78ZM188.402 600.72L187.378 603.538H190.376H262.326H263.797L264.3 602.155L283.169 550.28L284.194 547.463H281.196H209.232H207.761L207.259 548.845L188.402 600.72ZM282.711 569.595L281.686 572.413H284.685H351.928H354.925L353.901 569.595L320.286 477.128L318.313 471.7L316.339 477.128L282.711 569.595Z" fill="black" stroke="#E5F7F7" stroke-width="4.2"/>
<path d="M318.388 413.495C313.205 412.458 306.559 410.393 301.959 407.608C297.359 404.822 293.472 401.582 290.168 397.825L286.151 417.714L300.598 431.968V480.753H287.641V441.88L273.128 427.627L261.013 480.753H247.019C247.019 480.753 267.297 378.518 267.492 377.676C268.204 374.566 269.63 372.169 272.027 370.614C274.424 368.864 276.821 368.022 279.283 368.022C281.81 368.022 284.142 368.605 286.28 369.771C288.483 370.873 290.168 372.492 291.398 374.566L298.266 385.126C300.145 388.625 302.672 391.67 305.846 394.132C309.021 396.594 314.436 398.699 318.388 399.995V413.495ZM287.641 338.22C280.514 338.22 274.683 344.051 274.683 351.177C274.683 358.304 280.514 364.135 287.641 364.135C294.767 364.135 300.598 358.369 300.598 351.177C300.598 343.986 294.832 338.22 287.641 338.22Z" fill="black"/>
<circle cx="374.5" cy="357.5" r="34.5" stroke="#00CFBE" stroke-width="2"/>
<path d="M822 66.0005C818.818 66.0005 815.765 67.2648 813.515 69.5152C811.265 71.7656 810 74.8179 810 78.0005C810 84.6605 815.34 90.0005 822 90.0005C828.66 90.0005 834 84.6605 834 78.0005C834 74.8179 832.736 71.7656 830.486 69.5152C828.235 67.2648 825.183 66.0005 822 66.0005ZM810 96.0005C808.38 96.0005 807 96.6605 805.86 97.6805H805.8L774 129.54L782.52 138L804 116.46V192H816V150H828V192H840V116.46L861.48 138L870 129.54L838.2 97.6805C837 96.6605 835.62 96.0005 834 96.0005" fill="black"/>
<rect x="765.027" y="132.129" width="114.204" height="44.0788" rx="8" fill="#00CFBE"/>
<rect x="765.027" y="132.129" width="114.204" height="44.0788" rx="8" stroke="black" stroke-width="2"/>
<path d="M794.504 146.419C794.504 144.279 792.769 142.544 790.629 142.544C788.489 142.544 786.754 144.279 786.754 146.419V152.877C786.754 155.017 788.489 156.752 790.629 156.752C792.769 156.752 794.504 155.017 794.504 152.877V146.419Z" stroke="black" stroke-width="2" stroke-linecap="round" stroke-linejoin="round"/>
<path d="M799.67 152.877C799.67 154.065 799.437 155.241 798.982 156.338C798.528 157.435 797.862 158.431 797.022 159.271C796.183 160.11 795.186 160.776 794.089 161.231C792.992 161.685 791.816 161.919 790.629 161.919M790.629 161.919C789.441 161.919 788.266 161.685 787.169 161.231C786.072 160.776 785.075 160.11 784.235 159.271C783.396 158.431 782.73 157.435 782.275 156.338C781.821 155.241 781.587 154.065 781.587 152.877M790.629 161.919V165.794" stroke="black" stroke-width="2" stroke-linecap="round" stroke-linejoin="round"/>
<path d="M812.069 151.429C813.669 151.429 814.432 150.022 815.044 148.892C815.646 147.782 816.061 147.109 816.754 147.109C817.447 147.109 817.862 147.782 818.464 148.892C819.077 150.022 819.84 151.429 821.44 151.429C823.039 151.429 823.801 150.022 824.414 148.892C825.015 147.782 825.43 147.109 826.122 147.109C826.812 147.109 827.227 147.782 827.827 148.892C828.44 150.022 829.201 151.429 830.8 151.429C832.398 151.429 833.161 150.022 833.773 148.892C834.374 147.782 834.789 147.109 835.48 147.109C836.171 147.109 836.586 147.782 837.187 148.892C837.799 150.022 838.561 151.429 840.16 151.429C841.758 151.429 842.521 150.022 843.133 148.892C843.734 147.782 844.148 147.109 844.839 147.109C845.53 147.109 845.945 147.782 846.546 148.892C847.158 150.022 847.92 151.429 849.518 151.429C851.117 151.429 851.878 150.022 852.49 148.891C853.091 147.782 853.505 147.109 854.196 147.109C854.885 147.109 855.3 147.782 855.9 148.891C856.512 150.022 857.273 151.429 858.871 151.429C860.469 151.429 861.231 150.022 861.844 148.892C862.444 147.782 862.859 147.109 863.55 147.109C864.241 147.109 864.655 147.782 865.256 148.892C865.868 150.022 866.63 151.429 868.229 151.429C868.626 151.429 868.949 151.107 868.949 150.709C868.949 150.311 868.626 149.989 868.229 149.989C867.538 149.989 867.123 149.315 866.522 148.206C865.91 147.076 865.149 145.669 863.55 145.669C861.951 145.669 861.189 147.076 860.577 148.206C859.976 149.315 859.562 149.989 858.871 149.989C858.181 149.989 857.766 149.315 857.166 148.206C856.555 147.076 855.794 145.669 854.196 145.669C852.597 145.669 851.836 147.076 851.224 148.206C850.623 149.315 850.209 149.989 849.518 149.989C848.827 149.989 848.413 149.315 847.812 148.206C847.2 147.076 846.438 145.669 844.839 145.669C843.241 145.669 842.478 147.076 841.866 148.206C841.266 149.315 840.851 149.989 840.16 149.989C839.469 149.989 839.054 149.315 838.453 148.206C837.841 147.076 837.079 145.669 835.48 145.669C833.881 145.669 833.119 147.076 832.507 148.206C831.906 149.315 831.491 149.989 830.8 149.989C830.109 149.989 829.694 149.315 829.094 148.206C828.482 147.076 827.72 145.669 826.122 145.669C824.522 145.669 823.76 147.076 823.147 148.206C822.546 149.315 822.131 149.989 821.44 149.989C820.747 149.989 820.331 149.315 819.73 148.206C819.117 147.075 818.354 145.669 816.754 145.669C815.154 145.669 814.391 147.075 813.779 148.206C813.177 149.315 812.762 149.989 812.069 149.989C811.671 149.989 811.349 150.311 811.349 150.709C811.349 151.107 811.671 151.429 812.069 151.429Z" fill="black"/>
<path d="M812.069 162.948C813.669 162.948 814.432 161.541 815.045 160.411C815.646 159.302 816.062 158.628 816.754 158.628C817.447 158.628 817.862 159.302 818.464 160.411C819.077 161.542 819.84 162.948 821.44 162.948C823.039 162.948 823.801 161.541 824.414 160.411C825.015 159.302 825.43 158.628 826.122 158.628C826.813 158.628 827.227 159.302 827.828 160.411C828.44 161.541 829.201 162.948 830.8 162.948C832.399 162.948 833.161 161.541 833.773 160.411C834.374 159.302 834.789 158.628 835.481 158.628C836.172 158.628 836.586 159.302 837.187 160.411C837.799 161.541 838.561 162.948 840.16 162.948C841.759 162.948 842.521 161.541 843.133 160.411C843.734 159.302 844.148 158.628 844.839 158.628C845.531 158.628 845.945 159.302 846.546 160.411C847.158 161.541 847.92 162.948 849.519 162.948C851.117 162.948 851.878 161.541 852.49 160.411C853.091 159.302 853.505 158.628 854.196 158.628C854.886 158.628 855.3 159.302 855.9 160.411C856.512 161.541 857.273 162.948 858.871 162.948C860.47 162.948 861.232 161.541 861.844 160.411C862.445 159.302 862.859 158.628 863.55 158.628C864.241 158.628 864.656 159.302 865.256 160.411C865.868 161.541 866.63 162.948 868.229 162.948C868.626 162.948 868.949 162.626 868.949 162.228C868.949 161.83 868.626 161.508 868.229 161.508C867.538 161.508 867.124 160.835 866.523 159.725C865.911 158.595 865.149 157.188 863.55 157.188C861.952 157.188 861.19 158.595 860.577 159.725C859.977 160.835 859.562 161.508 858.871 161.508C858.181 161.508 857.767 160.835 857.167 159.726C856.555 158.595 855.794 157.188 854.196 157.188C852.598 157.188 851.836 158.595 851.224 159.726C850.624 160.835 850.209 161.508 849.519 161.508C848.828 161.508 848.413 160.835 847.812 159.725C847.2 158.595 846.438 157.188 844.839 157.188C843.241 157.188 842.479 158.595 841.867 159.725C841.266 160.835 840.851 161.508 840.16 161.508C839.469 161.508 839.054 160.835 838.453 159.725C837.841 158.595 837.079 157.188 835.481 157.188C833.882 157.188 833.119 158.595 832.507 159.725C831.906 160.835 831.491 161.508 830.8 161.508C830.109 161.508 829.694 160.835 829.094 159.725C828.482 158.595 827.72 157.188 826.122 157.188C824.523 157.188 823.76 158.595 823.148 159.725C822.547 160.835 822.132 161.508 821.44 161.508C820.747 161.508 820.332 160.835 819.73 159.725C819.117 158.594 818.354 157.188 816.754 157.188C815.154 157.188 814.392 158.594 813.779 159.725C813.177 160.835 812.762 161.508 812.069 161.508C811.671 161.508 811.349 161.83 811.349 162.228C811.349 162.626 811.671 162.948 812.069 162.948Z" fill="black"/>
<path d="M805 525C805 541.2 814.36 555.96 829 562.92V651H841V609H853V651H865V562.86C879.64 555.96 889 541.2 889 525H877C877 532.956 873.839 540.587 868.213 546.213C865.428 548.998 862.12 551.208 858.481 552.716C854.841 554.224 850.94 555 847 555C839.044 555 831.413 551.839 825.787 546.213C820.161 540.587 817 532.956 817 525M847 525C840.34 525 835 530.34 835 537C835 543.66 840.34 549 847 549C853.66 549 859 543.66 859 537C859 530.34 853.66 525 847 525Z" fill="black"/>
<rect x="934" y="595" width="193" height="45" rx="8" fill="#B3BEFA" stroke="black" stroke-width="2"/>
<circle cx="956.5" cy="618.5" r="8.5" fill="white"/>
<circle cx="956" cy="618" r="6" fill="black"/>
<rect x="957" y="550" width="193" height="45" rx="8" fill="#00CFBE" stroke="black" stroke-width="2"/>
<circle cx="979.5" cy="572.5" r="8.5" fill="white"/>
<circle cx="980" cy="572" r="6" fill="black"/>
<rect x="945" y="504" width="193" height="45" rx="8" fill="#FFF4D2" stroke="black" stroke-width="2"/>
<circle cx="967.5" cy="527.5" r="8.5" fill="white"/>
<circle cx="967" cy="527" r="6" fill="black"/>
<rect x="672" y="318" width="276" height="45" rx="8" stroke="black" stroke-width="2"/>
<rect x="482" y="280" width="113" height="13" stroke="black" stroke-width="2"/>
<rect x="482" y="299.634" width="107" height="13" stroke="black" stroke-width="2"/>
<rect x="482" y="319.269" width="85" height="13" stroke="black" stroke-width="2"/>
<rect x="482" y="338.903" width="96" height="13" stroke="black" stroke-width="2"/>
<rect x="971" y="459" width="193" height="45" rx="8" fill="#FFE2E0" stroke="black" stroke-width="2"/>
<circle cx="994.5" cy="482.5" r="8.5" fill="white"/>
<circle cx="994" cy="482" r="6" fill="black"/>
<rect x="672" y="263" width="276" height="45" rx="8" stroke="black" stroke-width="2"/>
<path d="M1051.17 460.126L1037.63 437.551L1051.09 418.826C1051.99 417.571 1052.55 416.102 1052.7 414.565L1057.62 366.601C1057.62 360.796 1052.46 355.636 1046.66 355.636C1044.72 355.636 1042.79 356.281 1041.5 356.926L1022.68 370.904C1020.33 372.651 1017.27 373.12 1014.5 372.158L1004.09 368.536L998.929 378.856L1010.5 383.813C1017.14 386.662 1024.9 385.212 1030.37 380.482C1031.85 379.207 1033.44 377.858 1035.1 376.497L1034 397.506L1002.15 426.586L991.189 460.126C991.189 460.126 1019.31 460.126 1051.17 460.126ZM1036.34 460.126H1004.09L1014.41 434.971L1029.24 422.716L1021.5 438.841L1036.34 460.126Z" fill="black"/>
<path d="M1038.19 331.378C1040.44 329.131 1043.48 327.869 1046.66 327.869C1049.84 327.869 1052.88 329.131 1055.13 331.378C1057.38 333.624 1058.64 336.671 1058.64 339.848C1058.64 346.496 1053.31 351.826 1046.66 351.826C1040.01 351.826 1034.68 346.496 1034.68 339.848C1034.68 336.671 1035.94 333.624 1038.19 331.378Z" fill="black"/>
<circle cx="975.5" cy="355" r="34.5" fill="#E5F7F7" stroke="black" stroke-width="2"/>
<circle cx="975.019" cy="355.487" r="19.4648" fill="#00CFBE" stroke="black" stroke-width="2"/>
<mask id="mask1_2381_2029" style="mask-type:alpha" maskUnits="userSpaceOnUse" x="975" y="334" width="17" height="43">
<rect x="975.008" y="334.69" width="16.6372" height="41.593" fill="#D9D9D9"/>
</mask>
<g mask="url(#mask1_2381_2029)">
<circle cx="975.009" cy="355.486" r="14.1416" fill="#E5F7F7"/>
<circle cx="975.424" cy="355.071" r="13.5575" stroke="black" stroke-width="2"/>
</g>
<path d="M976 342.094L976 368.257" stroke="black" stroke-width="2"/>
<path d="M617.502 530.8C617.502 527.379 616.143 524.097 613.724 521.678C611.305 519.259 608.023 517.9 604.602 517.9C601.181 517.9 597.9 519.259 595.48 521.678C593.061 524.097 591.702 527.379 591.702 530.8C591.702 537.959 597.443 543.7 604.602 543.7C608.023 543.7 611.305 542.341 613.724 539.922C616.143 537.502 617.502 534.221 617.502 530.8ZM575.577 574.982C580.286 574.982 583.769 573.692 587.574 571.177C591.444 568.661 594.282 565.501 596.153 561.76L600.926 551.633C602.087 549.376 603.635 547.699 605.699 546.538C607.569 545.441 609.569 544.861 611.633 544.861C613.697 544.861 615.632 545.377 617.502 546.28L649.752 564.533V592.913H637.755V571.564L628.79 566.533L630.983 576.659C631.563 580.013 631.886 583.367 631.886 586.786V618.778L647.301 639.611L637.755 646.9L619.76 622.712L618.663 601.75L607.827 616.843V646.9H595.895V607.813L607.827 590.978V586.786C607.827 583.948 607.827 581.174 607.118 578.465L604.86 570.725C602.409 574.273 599.378 577.24 595.895 580.013C590.412 584.399 585.252 586.205 576.545 586.141L575.577 574.982Z" fill="black"/>
<rect x="488" y="536" width="77" height="77" rx="8" transform="rotate(-15 488 536)" fill="#FFE2E0" stroke="black" stroke-width="2"/>
<g clip-path="url(#clip0_2381_2029)">
<path d="M516.718 554.841L524.314 559.236L518.744 560.729C518.175 560.881 517.689 561.254 517.395 561.764C517.1 562.274 517.02 562.881 517.173 563.45L519.473 572.036C519.626 572.606 519.998 573.091 520.509 573.386C521.019 573.68 521.626 573.76 522.195 573.608L527.711 572.129L537.812 578.016C538.073 578.153 538.358 578.237 538.651 578.263C538.945 578.289 539.24 578.257 539.521 578.168C539.801 578.093 540.063 577.964 540.293 577.788C540.644 577.521 540.907 577.155 541.049 576.738C541.191 576.321 541.206 575.872 541.092 575.446L539.013 567.686L547.028 572.314C546.803 572.547 546.586 572.766 546.344 572.98C546.124 573.177 545.99 573.453 545.973 573.747C545.956 574.042 546.057 574.331 546.253 574.552C546.45 574.772 546.726 574.906 547.02 574.923C547.315 574.94 547.604 574.839 547.825 574.643C548.242 574.27 548.639 573.875 549.015 573.461L552.118 575.252L553.186 573.356L517.804 552.928L516.718 554.841ZM538.946 576.021L528.415 569.905C528.155 569.784 527.858 569.769 527.587 569.862L521.62 571.461L519.319 562.875L525.372 561.253C525.514 561.215 525.647 561.148 525.763 561.058C525.879 560.968 525.976 560.855 526.048 560.727L526.252 560.373L536.303 566.158L538.946 576.021Z" fill="black"/>
<path d="M539.637 549.022C541.742 549.395 543.731 550.251 545.448 551.523C547.166 552.796 548.564 554.45 549.533 556.355C550.502 558.261 551.015 560.365 551.032 562.502C551.049 564.64 550.569 566.752 549.63 568.672L551.562 569.788C552.681 567.558 553.263 565.099 553.263 562.605C553.263 560.111 552.681 557.651 551.564 555.422C550.446 553.192 548.823 551.254 546.824 549.763C544.825 548.271 542.506 547.267 540.05 546.829C539.905 546.797 539.755 546.795 539.609 546.822C539.463 546.849 539.324 546.905 539.2 546.987C539.076 547.069 538.97 547.175 538.887 547.298C538.805 547.422 538.748 547.561 538.72 547.706C538.692 547.852 538.694 548.002 538.725 548.148C538.756 548.293 538.816 548.43 538.902 548.552C538.987 548.674 539.096 548.777 539.221 548.856C539.347 548.935 539.487 548.988 539.634 549.011L539.637 549.022Z" fill="black"/>
<path d="M538.981 556.019C540.149 556.338 541.214 556.956 542.071 557.811C542.927 558.667 543.546 559.731 543.866 560.899C544.251 562.336 544.159 563.858 543.602 565.237L545.556 566.347C546.393 564.451 546.555 562.325 546.013 560.324C545.592 558.781 544.776 557.375 543.646 556.243C542.516 555.112 541.11 554.295 539.568 553.872C539.425 553.827 539.274 553.812 539.125 553.826C538.976 553.841 538.831 553.886 538.7 553.958C538.569 554.03 538.453 554.128 538.361 554.246C538.268 554.364 538.2 554.499 538.162 554.644C538.123 554.789 538.114 554.94 538.135 555.088C538.156 555.237 538.207 555.379 538.284 555.507C538.362 555.636 538.464 555.747 538.586 555.834C538.708 555.922 538.846 555.984 538.992 556.016L538.981 556.019Z" fill="black"/>
<path d="M532.044 550.263L534.675 560.083L537.397 561.654L534.19 549.687C534.077 549.262 533.839 548.88 533.508 548.59C533.177 548.299 532.767 548.114 532.33 548.057C531.893 548 531.449 548.075 531.055 548.271C530.66 548.467 530.333 548.775 530.114 549.158L526.516 555.39L528.435 556.498L532.044 550.263Z" fill="black"/>
</g>
<rect x="793" y="480" width="106" height="40" rx="8" fill="#B3BEFA"/>
<rect x="793" y="480" width="106" height="40" rx="8" stroke="black" stroke-width="2"/>
<path d="M819.44 507.5L824.537 492.02H826.052L831.183 507.5H829.303L825.72 496.222C825.698 496.141 825.658 496.004 825.599 495.813C825.54 495.621 825.481 495.426 825.422 495.227C825.363 495.028 825.322 494.869 825.3 494.751C825.271 494.869 825.226 495.028 825.167 495.227C825.116 495.426 825.064 495.621 825.013 495.813C824.961 495.997 824.921 496.133 824.891 496.222L821.364 507.5H819.44ZM822.016 503.641L822.547 502.016H828.064L828.595 503.641H822.016ZM834.305 507.5V492.02H838.982C840.221 492.02 841.19 492.234 841.89 492.661C842.598 493.082 843.096 493.627 843.383 494.298C843.678 494.961 843.825 495.654 843.825 496.377C843.825 496.893 843.744 497.409 843.582 497.925C843.42 498.441 843.151 498.912 842.775 499.34C842.406 499.767 841.916 500.114 841.304 500.379C840.7 500.637 839.952 500.774 839.06 500.788H836.13V507.5H834.305ZM841.747 507.5L838.352 500.479L840.254 500.357L843.759 507.5H841.747ZM836.13 499.13H839.027C839.793 499.13 840.394 498.997 840.829 498.732C841.271 498.466 841.585 498.127 841.769 497.714C841.953 497.302 842.045 496.874 842.045 496.432C842.045 496.041 841.957 495.632 841.78 495.204C841.61 494.777 841.308 494.416 840.873 494.121C840.438 493.826 839.823 493.679 839.027 493.679H836.13V499.13ZM851.659 507.5V492.02H853.472V507.5H851.659ZM848.076 507.5V505.819H857.054V507.5H848.076ZM848.076 493.69V492.02H857.054V493.69H848.076ZM860.321 507.5L865.418 492.02H866.933L872.064 507.5H870.184L866.601 496.222C866.579 496.141 866.539 496.004 866.48 495.813C866.421 495.621 866.362 495.426 866.303 495.227C866.244 495.028 866.203 494.869 866.181 494.751C866.152 494.869 866.108 495.028 866.049 495.227C865.997 495.426 865.945 495.621 865.894 495.813C865.842 495.997 865.802 496.133 865.772 496.222L862.245 507.5H860.321ZM862.897 503.641L863.428 502.016H868.946L869.476 503.641H862.897Z" fill="black"/>
<path d="M486.69 119.33C493.214 125.853 501.042 129.115 510.174 129.115L510.826 142.813C498.432 142.813 487.343 138.247 477.558 129.115L472.992 124.548L457.988 140.204L472.339 153.903V193.042H459.293V159.122L450.813 151.294V165.645L423.415 193.695L414.282 184.562L437.766 161.079L429.938 138.247C428.634 134.333 430.591 131.072 433.852 128.462L455.379 106.936C457.988 103.674 461.25 102.369 464.511 102.369C467.773 102.369 469.73 103.022 471.687 104.326L486.69 119.33ZM487.995 78.8857C495.171 78.8857 501.042 84.7567 501.042 91.9322C501.042 99.1078 495.171 104.979 487.995 104.979C480.82 104.979 474.949 99.1078 474.949 91.9322C474.949 84.7567 480.82 78.8857 487.995 78.8857Z" fill="black"/>
<rect x="505.913" y="117.259" width="169.841" height="33.9682" rx="16.9841" transform="rotate(30 505.913 117.259)" fill="#FFF4D2" stroke="black" stroke-width="2"/>
<path d="M514.351 140.544L513.561 141.912L507.987 138.694L508.777 137.326L514.351 140.544Z" fill="black"/>
<path d="M560.608 163.05L554.95 172.849L553.467 171.993L558.268 163.677L558.211 163.644L554.982 163.821L555.8 162.405L559.168 162.219L560.608 163.05ZM560.919 176.512C560.164 176.072 559.634 175.5 559.326 174.795C559.019 174.09 558.941 173.278 559.094 172.358C559.246 171.438 559.63 170.445 560.245 169.38C560.858 168.318 561.524 167.492 562.243 166.903C562.965 166.316 563.708 165.98 564.472 165.893C565.239 165.809 565.998 165.983 566.747 166.416C567.497 166.849 568.025 167.419 568.33 168.128C568.638 168.832 568.716 169.643 568.566 170.56C568.42 171.475 568.04 172.464 567.427 173.526C566.81 174.595 566.141 175.425 565.421 176.017C564.703 176.606 563.96 176.945 563.194 177.035C562.43 177.121 561.671 176.947 560.919 176.512ZM561.656 175.234C562.32 175.617 563.025 175.593 563.772 175.161C564.522 174.731 565.251 173.903 565.958 172.678C566.428 171.865 566.739 171.128 566.89 170.467C567.047 169.805 567.05 169.236 566.899 168.762C566.752 168.286 566.461 167.922 566.024 167.67C565.363 167.289 564.657 167.315 563.905 167.748C563.153 168.181 562.423 169.008 561.714 170.228C561.243 171.045 560.928 171.784 560.772 172.446C560.62 173.107 560.618 173.674 560.766 174.146C560.916 174.616 561.213 174.978 561.656 175.234ZM569.616 181.533C568.862 181.094 568.331 180.521 568.024 179.817C567.716 179.112 567.639 178.299 567.791 177.379C567.944 176.459 568.328 175.467 568.943 174.401C569.556 173.339 570.222 172.514 570.94 171.925C571.662 171.338 572.405 171.001 573.169 170.915C573.937 170.831 574.695 171.005 575.445 171.438C576.194 171.87 576.722 172.441 577.028 173.149C577.335 173.854 577.414 174.665 577.263 175.581C577.117 176.497 576.738 177.486 576.124 178.548C575.508 179.616 574.839 180.447 574.119 181.039C573.4 181.628 572.658 181.967 571.892 182.056C571.127 182.142 570.369 181.968 569.616 181.533ZM570.354 180.256C571.017 180.639 571.722 180.614 572.469 180.182C573.22 179.752 573.948 178.925 574.656 177.7C575.125 176.886 575.436 176.149 575.588 175.488C575.745 174.826 575.748 174.258 575.596 173.783C575.45 173.308 575.158 172.944 574.721 172.691C574.061 172.31 573.355 172.336 572.602 172.77C571.85 173.203 571.12 174.03 570.412 175.249C569.94 176.066 569.626 176.805 569.469 177.468C569.317 178.128 569.315 178.695 569.463 179.168C569.614 179.637 569.91 180 570.354 180.256ZM581.172 185.538L581.47 185.022C581.683 184.652 581.955 184.358 582.285 184.14C582.62 183.921 582.989 183.804 583.393 183.79C583.801 183.775 584.218 183.89 584.642 184.135C585.076 184.386 585.386 184.688 585.573 185.043C585.759 185.397 585.838 185.772 585.809 186.168C585.784 186.566 585.664 186.95 585.451 187.32L585.152 187.837C584.939 188.207 584.666 188.502 584.334 188.723C584.004 188.941 583.637 189.058 583.232 189.075C582.831 189.091 582.417 188.975 581.99 188.729C581.559 188.48 581.249 188.177 581.059 187.821C580.871 187.462 580.789 187.085 580.813 186.69C580.838 186.292 580.958 185.908 581.172 185.538ZM582.585 185.665L582.286 186.182C582.128 186.456 582.05 186.743 582.052 187.042C582.053 187.34 582.217 187.584 582.542 187.772C582.865 187.958 583.154 187.976 583.41 187.826C583.667 187.677 583.874 187.465 584.033 187.19L584.331 186.673C584.49 186.399 584.571 186.114 584.575 185.819C584.583 185.526 584.421 185.284 584.089 185.092C583.77 184.908 583.479 184.889 583.217 185.035C582.954 185.181 582.743 185.391 582.585 185.665ZM579.481 177.085L579.779 176.569C579.993 176.199 580.266 175.903 580.597 175.682C580.932 175.463 581.301 175.346 581.705 175.333C582.112 175.321 582.527 175.437 582.951 175.682C583.385 175.933 583.695 176.235 583.882 176.59C584.069 176.944 584.148 177.319 584.119 177.715C584.09 178.111 583.969 178.494 583.755 178.864L583.457 179.381C583.243 179.751 582.971 180.046 582.639 180.267C582.312 180.487 581.946 180.605 581.541 180.622C581.141 180.638 580.727 180.522 580.299 180.276C579.865 180.025 579.554 179.722 579.364 179.365C579.179 179.008 579.098 178.632 579.122 178.237C579.148 177.839 579.267 177.455 579.481 177.085ZM580.899 177.215L580.6 177.732C580.442 178.006 580.362 178.292 580.361 178.589C580.363 178.887 580.526 179.131 580.852 179.319C581.171 179.503 581.459 179.52 581.715 179.37C581.975 179.223 582.184 179.012 582.342 178.737L582.64 178.22C582.799 177.946 582.88 177.661 582.885 177.366C582.889 177.071 582.727 176.829 582.399 176.639C582.08 176.455 581.789 176.436 581.526 176.582C581.266 176.73 581.057 176.941 580.899 177.215ZM575.637 184.793L588.031 178.883L589.175 179.543L576.781 185.453L575.637 184.793Z" fill="black"/>
<path d="M622.794 209.92L627.534 201.709L628.928 202.513L624.187 210.724L622.794 209.92ZM621.353 204.543L622.157 203.149L630.369 207.89L629.564 209.283L621.353 204.543Z" fill="black"/>
<rect x="60" y="66" width="120.711" height="45.8555" rx="22.9277" fill="black"/>
<path d="M88.8905 80.3134C93.7583 80.3134 97.1402 83.5671 97.1402 89.101C97.1402 94.6349 93.7583 97.8887 88.8905 97.8887H82.4856V80.3134H88.8905ZM88.8905 95.9159C92.4261 95.9159 94.86 93.4052 94.86 89.101C94.86 84.7969 92.4261 82.3117 88.8905 82.3117H84.7401V95.9159H88.8905ZM111.331 91.6374V92.201H101.955C102.134 94.5837 103.492 96.0953 105.695 96.0953C107.898 96.0953 108.744 94.9424 108.974 93.9176H111.255C110.768 96.1978 109.026 98.0168 105.669 98.0168C101.75 98.0168 99.6231 95.3267 99.6231 91.6374C99.6231 87.8713 102.108 85.2068 105.618 85.2068C109.128 85.2068 111.331 87.5894 111.331 91.6374ZM105.644 87.1283C103.722 87.1283 102.364 88.4349 102.006 90.5357H109.051C108.769 88.2812 107.54 87.1283 105.644 87.1283ZM116.122 88.7423C116.122 91.6118 123.577 89.4341 123.577 94.4812C123.577 96.5564 121.784 98.0168 118.555 98.0168C115.097 98.0168 113.611 96.6333 113.56 94.1994L115.635 94.225C115.763 95.4292 116.531 96.0953 118.581 96.0953C120.528 96.0953 121.348 95.4292 121.348 94.4812C121.348 91.5605 113.893 93.6358 113.893 88.7423C113.893 86.6671 115.66 85.2068 118.709 85.2068C121.732 85.2068 123.295 86.5903 123.398 89.0242L121.297 88.9985C121.194 87.7688 120.246 87.1283 118.658 87.1283C116.941 87.1283 116.122 87.7432 116.122 88.7423ZM129.41 81.2357C129.41 82.1324 128.718 82.7729 127.847 82.7729C126.976 82.7729 126.284 82.1324 126.284 81.2357C126.284 80.3646 126.976 79.6985 127.847 79.6985C128.718 79.6985 129.41 80.3646 129.41 81.2357ZM126.643 97.8887V85.3349H128.923V97.8887H126.643ZM142.05 85.3349H144.176V98.1449C144.176 101.066 142.05 103.269 138.13 103.269C134.722 103.269 132.775 101.885 132.468 99.2465H134.722C135.004 100.758 136.08 101.347 138.104 101.347C140.743 101.347 141.922 99.887 141.922 98.1449V95.9672C141.179 97.1713 139.872 98.0168 137.848 98.0168C134.389 98.0168 132.032 95.4548 132.032 91.5862C132.032 87.7688 134.389 85.2068 137.848 85.2068C139.898 85.2068 141.204 86.0779 141.947 87.3076L142.05 85.3349ZM138.002 96.0953C140.692 96.0953 141.922 93.7639 141.922 91.868V91.3556C141.922 89.4597 140.692 87.1283 138.002 87.1283C135.799 87.1283 134.338 88.9217 134.338 91.5862C134.338 94.3019 135.799 96.0953 138.002 96.0953ZM154.292 85.2068C157.059 85.2068 158.827 86.8977 158.827 89.9721V97.8887H156.547V90.4333C156.547 88.3068 155.548 87.1283 153.677 87.1283C151.653 87.1283 150.295 88.4605 150.295 90.587V97.8887H148.041V85.3349H150.167L150.27 87.2051C151.064 86.0522 152.396 85.2068 154.292 85.2068Z" fill="white"/>
<defs>
<clipPath id="clip0_2381_2029">
<rect width="40" height="40" fill="white" transform="translate(511 549) rotate(-15)"/>
</clipPath>
</defs>
</svg>
